<svg xmlns="http://www.w3.org/2000/svg" xmlns:xlink="http://www.w3.org/1999/xlink" width="290.01" height="290.071" viewBox="0 0 290.01 290.071">
  <defs>
    <clipPath id="clip-path">
      <rect id="Rectangle_10830" data-name="Rectangle 10830" width="289.742" height="289.743" fill="#c33149"/>
    </clipPath>
    <clipPath id="clip-path-2">
      <rect id="Rectangle_10831" data-name="Rectangle 10831" width="290.01" height="290.011" fill="#c33149"/>
    </clipPath>
  </defs>
  <g id="Group_74103" data-name="Group 74103" transform="translate(0)" style="isolation: isolate">
    <g id="Group_54471" data-name="Group 54471" transform="translate(22.223 28.398)">
      <path id="Path_60199" data-name="Path 60199" d="M66.474,82.928a2.585,2.585,0,1,0-2.585,2.585A2.585,2.585,0,0,0,66.474,82.928Z" transform="translate(-61.304 147.703)" fill="#c33149"/>
      <path id="Path_60200" data-name="Path 60200" d="M729.6,712a2.585,2.585,0,1,0-2.585,2.585A2.585,2.585,0,0,0,729.6,712Z" transform="translate(-484.042 -709.411)" fill="#c33149"/>
    </g>
    <g id="Group_54485" data-name="Group 54485" transform="translate(0 0.06)">
      <g id="Group_54484" data-name="Group 54484" clip-path="url(#clip-path-2)">
        <g id="Group_54483" data-name="Group 54483" transform="translate(-16.914 -8.419)">
          <g id="Group_54482" data-name="Group 54482">
            <g id="Group_54481" data-name="Group 54481">
              <path id="Path_60256" data-name="Path 60256" d="M-17.006,520.648a1.5,1.5,0,0,0-1.5-1.486,1.5,1.5,0,0,0-1.507,1.486,1.5,1.5,0,0,0,1.507,1.483A1.493,1.493,0,0,0-17.006,520.648Z" transform="translate(29.676 -411.236)" fill="#c33149"/>
              <g id="Group_54479" data-name="Group 54479" transform="translate(15.388 37.621)">
                <path id="Path_60257" data-name="Path 60257" d="M-4.212,704.169l3.279,1.9,3.279,1.893v-7.581l-3.279,1.894Z" transform="translate(4.212 -700.377)" fill="#c33149"/>
              </g>
              <path id="Path_60258" data-name="Path 60258" d="M94.322,806.991a1.505,1.505,0,1,0-1.506,1.483A1.494,1.494,0,0,0,94.322,806.991Z" transform="translate(-41.296 -801.382)" fill="#c33149"/>
              <g id="Group_54480" data-name="Group 54480">
                <path id="Path_60259" data-name="Path 60259" d="M363.837,740.058a6.394,6.394,0,1,1,6.479-6.392A6.444,6.444,0,0,1,363.837,740.058Zm0-12.418a6.026,6.026,0,1,0,6.108,6.026A6.074,6.074,0,0,0,363.836,727.64Z" transform="translate(-210.895 -704.607)" fill="#c33149"/>
                <path id="Path_60260" data-name="Path 60260" d="M31.013,580.83a5.066,5.066,0,1,1,5.066,5A5.037,5.037,0,0,1,31.013,580.83Zm9.2,0a4.132,4.132,0,1,0-4.132,4.077A4.11,4.11,0,0,0,40.21,580.83Z" transform="translate(-2.856 -495.478)" fill="#c33149"/>
                <path id="Path_60261" data-name="Path 60261" d="M417.973,717.828a2.237,2.237,0,1,1-2.268,2.238A2.25,2.25,0,0,1,417.973,717.828Z" transform="translate(-248.092 -683.427)" fill="#c33149"/>
                <path id="Path_60262" data-name="Path 60262" d="M189.113,470.586a2.254,2.254,0,0,1-2.268-2.238,2.222,2.222,0,0,1,.053-.48H152.841l-6.921,8.142H158.8a1.479,1.479,0,1,1,0,.92h-23.68a9.549,9.549,0,0,1-19.061,0H105.855L93.783,488.84H72.566a2.275,2.275,0,0,1-4.439,0H58.34l8.547,8.433h26.3a1.484,1.484,0,1,1,0,.921H66.5l-9.48-9.353H49.06a24.182,24.182,0,0,1-4.237,13.227l.013-.013,9.049,8.926-.653.643,11.779-6.709,11.922,6.79v13.583l-11.922,6.791-11.923-6.791V511.705l.134-.076-8.934-8.813a24.961,24.961,0,0,1-19.647,10.106v4.473l7.721,4.4V525.2l6.828,6.737V520.569l-2.822-2.783.659-.653,3.1,3.054v12.674l6.6,6.514v16.45l5.575,5.5a1.477,1.477,0,1,1-.828,1.32,1.457,1.457,0,0,1,.168-.669l-5.849-5.771V539.757l-13.431-13.25v4.156l10.862,10.716v26.658H42.29V541.76L31.818,531.43l-7.177,4.09v9.506l-10.8,10.65v10.17a2.231,2.231,0,0,1,0,4.379v11.2a1.506,1.506,0,1,1-.933,0v-11.2a2.231,2.231,0,0,1,0-4.379V555.293l10.8-10.649V535.52l-7.721-4.4v-9.327L21.1,518.88v-9.411a21.664,21.664,0,0,1-11.617-5.488l-3.991,3.937H-11.292a1.5,1.5,0,0,1-1.464,1.153,1.5,1.5,0,0,1-1.505-1.485,1.5,1.5,0,0,1,1.505-1.484,1.5,1.5,0,0,1,1.38.9H5.105l3.706-3.657a21.061,21.061,0,0,1,0-29.921l-1.666-1.643a23.4,23.4,0,0,0-6.928,16.6H-.716a24.307,24.307,0,0,1,7.2-17.255l-20.668-20.389a1.507,1.507,0,0,1-.678.166,1.5,1.5,0,0,1-1.505-1.486,1.5,1.5,0,0,1,1.505-1.485,1.5,1.5,0,0,1,1.505,1.484,1.456,1.456,0,0,1-.168.669l20.679,20.4a24.979,24.979,0,0,1,17.017-6.659v.921a24.035,24.035,0,0,0-16.357,6.39l1.666,1.643A21.756,21.756,0,0,1,39.1,473l7.656-7.554H59.91L76.2,449.382a1.455,1.455,0,0,1-.089-.485,1.505,1.505,0,1,1,1.5,1.486,1.517,1.517,0,0,1-.848-.26L61.23,465.448h3.792l16.26-16.04a1.459,1.459,0,0,1-.1-.511,1.5,1.5,0,1,1,.678,1.24L66.344,465.448h19a1.485,1.485,0,1,1,0,.92H65.41l-.069.068-.069-.068H60.3l-.068.067-.068-.067H47.145l-7.383,7.283a21.081,21.081,0,0,1,6.01,14.727,21.467,21.467,0,0,1-21.131,21.3V512a23.812,23.812,0,0,0,23.49-23.622v-.46H68.126a2.275,2.275,0,0,1,4.439,0H93.4l12.071-11.908h10.6a9.549,9.549,0,0,1,19.061,0H144.7l7.706-9.063h34.94a2.278,2.278,0,0,1,1.768-.838,2.238,2.238,0,1,1,0,4.476ZM54.023,524.756l10.988,6.26L76,524.756V512.237l-10.988-6.259-10.99,6.259Zm-37.1,5.834,7.254,4.132,7.256-4.13v-8.268l-7.256-4.131-7.254,4.131Zm5.112-12.241,1.676-.955v-7.718c-.564-.011-1.124-.039-1.677-.093Zm1.677-30.16L36.269,475.8a17.461,17.461,0,1,0-12.561,29.925Zm.932.382v17.151A17.482,17.482,0,0,0,41.763,488.38a17.167,17.167,0,0,0-4.835-11.932Zm-.467-20.579a20.384,20.384,0,1,0-.465,40.764V506.09a17.722,17.722,0,1,1,12.825-30.553l1.91-1.885A20.738,20.738,0,0,0,24.173,467.992ZM44.84,488.38A20.17,20.17,0,0,0,39.1,474.3l-1.91,1.885a17.53,17.53,0,0,1,4.946,12.192,17.854,17.854,0,0,1-17.5,17.711v2.666A20.542,20.542,0,0,0,44.84,488.38Zm80.753-20.4a8.494,8.494,0,1,0,8.609,8.494A8.562,8.562,0,0,0,125.594,467.977Z" transform="translate(27.347 -447.412)" fill="#c33149"/>
                <path id="Path_60263" data-name="Path 60263" d="M109.327,532.974a2.238,2.238,0,1,1,2.268-2.237A2.253,2.253,0,0,1,109.327,532.974Z" transform="translate(-51.334 -425.464)" fill="#c33149"/>
                <path id="Path_60264" data-name="Path 60264" d="M109.327,551.911a2.238,2.238,0,1,1,2.268-2.237A2.254,2.254,0,0,1,109.327,551.911Z" transform="translate(-51.334 -451.266)" fill="#c33149"/>
                <path id="Path_60265" data-name="Path 60265" d="M250.925,613.1a2.238,2.238,0,1,1-2.269,2.237A2.252,2.252,0,0,1,250.925,613.1Z" transform="translate(-141.601 -540.732)" fill="#c33149"/>
                <path id="Path_60266" data-name="Path 60266" d="M250.926,636.509a2.237,2.237,0,1,1,2.267-2.237A2.252,2.252,0,0,1,250.926,636.509Z" transform="translate(-141.601 -566.532)" fill="#c33149"/>
                <path id="Path_60267" data-name="Path 60267" d="M40.834,587.007a1.505,1.505,0,1,1,1.5,1.486A1.494,1.494,0,0,1,40.834,587.007Z" transform="translate(-9.117 -501.655)" fill="#c33149"/>
                <path id="Path_60268" data-name="Path 60268" d="M86.558,805.808a5,5,0,1,1,5.066-5A5.036,5.036,0,0,1,86.558,805.808Zm0-9.074a4.076,4.076,0,1,0,4.132,4.076A4.109,4.109,0,0,0,86.558,796.734Z" transform="translate(-35.037 -795.203)" fill="#c33149"/>
                <path id="Path_60269" data-name="Path 60269" d="M-19.7,514.465a5.036,5.036,0,0,1-5.065,5,5.037,5.037,0,0,1-5.065-5,5.036,5.036,0,0,1,5.065-5A5.037,5.037,0,0,1-19.7,514.465Zm-5.066-4.077a4.109,4.109,0,0,0-4.13,4.077,4.107,4.107,0,0,0,4.132,4.075,4.108,4.108,0,0,0,4.131-4.075A4.109,4.109,0,0,0-24.77,510.388Z" transform="translate(35.933 -405.053)" fill="#c33149"/>
                <path id="Path_60270" data-name="Path 60270" d="M298.988,794.707a5,5,0,1,1,5.064-5A5.036,5.036,0,0,1,298.988,794.707Zm0-9.073a4.076,4.076,0,1,0,4.131,4.076A4.109,4.109,0,0,0,298.988,785.634Z" transform="translate(-170.458 -780.079)" fill="#c33149"/>
                <path id="Path_60271" data-name="Path 60271" d="M305.246,797.371a1.486,1.486,0,1,1,1.506-1.485A1.495,1.495,0,0,1,305.246,797.371Z" transform="translate(-176.717 -786.254)" fill="#c33149"/>
                <path id="Path_60272" data-name="Path 60272" d="M42.339,619.619a1.485,1.485,0,1,1-1.5,1.485A1.492,1.492,0,0,1,42.339,619.619Z" transform="translate(-9.117 -548.112)" fill="#c33149"/>
                <path id="Path_60273" data-name="Path 60273" d="M220.793,725.7a1.506,1.506,0,0,1-.678-.166l-13.541,13.358h-42.8v-.921H181.4l7.761-7.657h13.96v.921H189.543l-6.827,6.736h23.472l13.267-13.088a1.456,1.456,0,0,1-.168-.67,1.506,1.506,0,1,1,1.506,1.487Z" transform="translate(-87.489 -701.793)" fill="#c33149"/>
                <path id="Path_60274" data-name="Path 60274" d="M-33.358,461.009a1.508,1.508,0,0,1,.628.14l18.078-17.835.659.653-18.055,17.81a1.452,1.452,0,0,1,.2.718,1.5,1.5,0,0,1-1.506,1.485,1.494,1.494,0,0,1-1.5-1.485A1.494,1.494,0,0,1-33.358,461.009Z" transform="translate(39.139 -325.59)" fill="#c33149"/>
                <path id="Path_60275" data-name="Path 60275" d="M18.734,264.2V247.808l11.943-11.781v-24.9l12.036-11.875.66.651L31.609,211.51v61.08l7.721,4.4v9.328l-7.721,4.4v41.47h-.933v-41.47l-2.457-1.4v23.642a1.506,1.506,0,1,1-.933,0V288.784l-4.333-2.467,0-9.328,7.721-4.4v-35.26l-11.01,10.86v16.045a1.507,1.507,0,1,1-.933-.034Zm5.153,21.585,4.131,2.352h.2v.115l2.924,1.665,7.255-4.132V277.52l-7.255-4.133-7.255,4.133Z" transform="translate(5.669 -105.319)" fill="#c33149"/>
                <path id="Path_60276" data-name="Path 60276" d="M68.643,408.045l-1.279,2.3L65.985,408.1l-1.379-2.242,2.658-.057,2.658-.056Z" transform="translate(-24.271 -258.336)" fill="#c33149"/>
                <path id="Path_60277" data-name="Path 60277" d="M440.175,719.29,437.9,720.65l-2.271,1.36-.058-2.622-.058-2.621,2.331,1.261Z" transform="translate(-260.72 -682.75)" fill="#c33149"/>
                <path id="Path_60278" data-name="Path 60278" d="M234.221,580.811l-2.274,1.36-2.274,1.362-.057-2.623-.057-2.622,2.331,1.262Z" transform="translate(-129.426 -494.072)" fill="#c33149"/>
                <path id="Path_60279" data-name="Path 60279" d="M-8.291,586.481l.056,2.623.058,2.622-2.331-1.263-2.331-1.261,2.274-1.36Z" transform="translate(25.099 -505.236)" fill="#c33149"/>
                <path id="Path_60280" data-name="Path 60280" d="M146.917,639.682l-1.38-2.243-1.379-2.245,2.659-.055,2.659-.058-1.28,2.3Z" transform="translate(-74.984 -570.81)" fill="#c33149"/>
                <path id="Path_60281" data-name="Path 60281" d="M134.492,351.625l-1.28,2.3-1.279,2.3-1.38-2.242-1.379-2.244,2.659-.056Z" transform="translate(-65.433 -184.596)" fill="#c33149"/>
                <path id="Path_60282" data-name="Path 60282" d="M52.871,186.566l-1.28,2.3-1.279,2.3-1.379-2.243-1.379-2.243,2.658-.057Z" transform="translate(-13.4 40.299)" fill="#c33149"/>
                <path id="Path_60283" data-name="Path 60283" d="M65.986,425.406l-1.38-2.242,2.658-.056,2.658-.057-1.28,2.3-1.279,2.3Z" transform="translate(-24.271 -281.913)" fill="#c33149"/>
                <path id="Path_60284" data-name="Path 60284" d="M50.636,324.226v6.385l-5.606,3.194-5.6-3.194v-6.385l5.605-3.193ZM39.8,330.4l5.233,2.981,5.233-2.981v-5.96l-5.232-2.98-5.233,2.98Z" transform="translate(-8.218 -151.086)" fill="#c33149"/>
                <path id="Path_60285" data-name="Path 60285" d="M200.968,605l.093.052v10.592l-9.3,5.3-9.2-5.243-.094-.053V605.056l9.3-5.295Zm-18.129,10.433,8.924,5.082,8.925-5.082V605.269l-8.924-5.083-8.925,5.084Z" transform="translate(-99.405 -539.267)" fill="#c33149"/>
                <path id="Path_60286" data-name="Path 60286" d="M120.768,782.989v-3.861l3.388-1.93,3.389,1.93v3.861l-3.388,1.93Z" transform="translate(-60.073 -767.566)" fill="#c33149"/>
                <path id="Path_60287" data-name="Path 60287" d="M195.566,548.121v2.428l-2.132,1.216-2.131-1.216v-2.428l2.131-1.215Z" transform="translate(-105.039 -450.928)" fill="#c33149"/>
                <path id="Path_60288" data-name="Path 60288" d="M390.381,680.426v3.324l-2.918,1.663-2.918-1.662v-3.325l2.918-1.661Z" transform="translate(-228.228 -632.376)" fill="#c33149"/>
                <path id="Path_60289" data-name="Path 60289" d="M90.93,598.45l-5.978,3.4-5.977-3.4v-6.809l5.976-3.4,5.979,3.4Zm-.374-6.6-5.6-3.192-5.6,3.192v6.382l5.6,3.192,5.6-3.192Z" transform="translate(-33.431 -516.001)" fill="#c33149"/>
                <path id="Path_60290" data-name="Path 60290" d="M134.328,440.919v42.108a1.505,1.505,0,1,1-.932,0V440.919Z" transform="translate(-67.462 -346.659)" fill="#c33149"/>
                <path id="Path_60291" data-name="Path 60291" d="M500.861,733.271l-2.046,1.167L496.77,735.6v-4.66l2.044,1.164Z" transform="translate(-299.771 -701.48)" fill="#c33149"/>
                <path id="Path_60292" data-name="Path 60292" d="M14.5,470.081l-35.887,35.4a1.456,1.456,0,0,1,.233.787,1.5,1.5,0,0,1-1.506,1.486,1.5,1.5,0,0,1-1.505-1.487,1.5,1.5,0,0,1,1.505-1.484,1.509,1.509,0,0,1,.552.107L5.009,478.139H-4.381l-6.885,6.792-.66-.652,7.158-7.06H5.943l7.894-7.787Z" transform="translate(32.321 -378.834)" fill="#c33149"/>
                <path id="Path_60293" data-name="Path 60293" d="M184.378,745.677l-.058-2.623,2.331,1.264,2.332,1.262-2.273,1.362-2.273,1.359Z" transform="translate(-100.588 -718.569)" fill="#c33149"/>
                <path id="Path_60294" data-name="Path 60294" d="M166.834,745.676l-.058-2.623,2.332,1.263,2.331,1.262-2.274,1.36-2.273,1.36Z" transform="translate(-89.403 -718.568)" fill="#c33149"/>
                <path id="Path_60295" data-name="Path 60295" d="M40.273,814.229l1.27-2.317,1.27-2.316,1.369,2.259,1.369,2.261-2.64.056Z" transform="translate(-8.759 -808.622)" fill="#c33149"/>
                <path id="Path_60296" data-name="Path 60296" d="M40.273,796.8l1.271-2.317,1.27-2.317,1.369,2.259,1.37,2.259-2.64.058Z" transform="translate(-8.759 -784.872)" fill="#c33149"/>
                <path id="Path_60297" data-name="Path 60297" d="M542.714,724.35a2.275,2.275,0,0,1-4.44,0H512.25l2.774,2.736h13.57a1.48,1.48,0,1,1,0,.92H514.636l-3.708-3.657h-9.521l-12.652,7.2V716.223l12.656,7.207h36.862a2.275,2.275,0,0,1,4.44,0h.048v.92Zm-53.024-6.531v12.144l10.66-6.073Z" transform="translate(-294.661 -692.098)" fill="#c33149"/>
                <path id="Path_60298" data-name="Path 60298" d="M422.625,763.261l-.725-.581,7.891-9.587h28.741v.92h-28.3Z" transform="translate(-252.042 -737.17)" fill="#c33149"/>
                <path id="Path_60299" data-name="Path 60299" d="M-18.478,614.468a5.044,5.044,0,0,1,5.041-4.536,5.037,5.037,0,0,1,5.066,5,5.037,5.037,0,0,1-5.066,5,5.045,5.045,0,0,1-5.041-4.537H-43.741a1.5,1.5,0,0,1-1.412.992,1.5,1.5,0,0,1-1.506-1.486,1.5,1.5,0,0,1,1.505-1.485,1.5,1.5,0,0,1,1.434,1.059ZM-13.437,619a4.11,4.11,0,0,0,4.132-4.076,4.109,4.109,0,0,0-4.132-4.077,4.111,4.111,0,0,0-4.132,4.077A4.11,4.11,0,0,0-13.437,619Z" transform="translate(46.659 -541.936)" fill="#c33149"/>
                <path id="Path_60300" data-name="Path 60300" d="M110.745,483.6v3.86l-3.388,1.931-3.389-1.931V483.6l3.389-1.93Z" transform="translate(-49.364 -364.91)" fill="#c33149"/>
                <path id="Path_60301" data-name="Path 60301" d="M404.687,773.919l-3.388-1.93v-3.86l3.388-1.93,3.389,1.931v3.859Z" transform="translate(-238.909 -752.579)" fill="#c33149"/>
                <path id="Path_60302" data-name="Path 60302" d="M319.773,688.034V670.322l15.55,8.856Zm.934-8.856v7.26l12.748-7.261-12.748-7.261Z" transform="translate(-186.937 -631.938)" fill="#c33149"/>
                <path id="Path_60303" data-name="Path 60303" d="M122.842,409.543l-7.772-13.279h15.543Zm0-1.843L129,397.184h-12.31Z" transform="translate(-56.441 -254.096)" fill="#c33149"/>
              </g>
              <path id="Path_60304" data-name="Path 60304" d="M372.468,738.583a3.645,3.645,0,1,0-3.644,3.595A3.619,3.619,0,0,0,372.468,738.583Z" transform="translate(-215.883 -709.524)" fill="#c33149"/>
              <path id="Path_60305" data-name="Path 60305" d="M90.64,701.024a6.359,6.359,0,1,0-6.36,6.273A6.317,6.317,0,0,0,90.64,701.024Z" transform="translate(-32.76 -660.056)" fill="#c33149"/>
              <path id="Path_60306" data-name="Path 60306" d="M52.871,331.806l-2.659-1.513-2.658,1.513v3.029l2.658,1.515,2.659-1.515Z" transform="translate(-13.401 -156.988)" fill="#c33149"/>
              <path id="Path_60307" data-name="Path 60307" d="M204.076,615.275l-5.325-3.032-5.325,3.032v6.067l5.325,3.033,5.325-3.033Z" transform="translate(-106.393 -547.223)" fill="#c33149"/>
              <path id="Path_60308" data-name="Path 60308" d="M93.484,600.309l-2.61-1.485-2.609,1.486v2.97l2.609,1.485,2.609-1.485Z" transform="translate(-39.354 -522.75)" fill="#c33149"/>
              <path id="Path_60309" data-name="Path 60309" d="M333.749,689.944l-2.4-1.367-2.4-1.367v5.468l2.4-1.368Z" transform="translate(-192.787 -642.704)" fill="#c33149"/>
              <path id="Path_60310" data-name="Path 60310" d="M132.354,417.894l1.182-2.017,1.18-2.019h-4.725l1.182,2.019Z" transform="translate(-65.953 -268.825)" fill="#c33149"/>
            </g>
          </g>
        </g>
      </g>
    </g>
  </g>
</svg>
