<svg xmlns="http://www.w3.org/2000/svg" xmlns:xlink="http://www.w3.org/1999/xlink" width="381.161" height="381.24" viewBox="0 0 381.161 381.24">
  <defs>
    <clipPath id="clip-path">
      <rect id="Rectangle_10830" data-name="Rectangle 10830" width="380.809" height="380.81" fill="#c33149"/>
    </clipPath>
    <clipPath id="clip-path-2">
      <rect id="Rectangle_10831" data-name="Rectangle 10831" width="381.161" height="381.162" fill="#c33149"/>
    </clipPath>
  </defs>
  <g id="Group_54508" data-name="Group 54508" transform="translate(0)" style="isolation: isolate">
    <g id="Group_54471" data-name="Group 54471" transform="translate(29.208 37.402)">
      <path id="Path_60199" data-name="Path 60199" d="M61.3,83.741a3.4,3.4,0,1,0,3.4-3.4A3.4,3.4,0,0,0,61.3,83.741Z" transform="translate(254.646 -80.343)" fill="#c33149"/>
      <path id="Path_60200" data-name="Path 60200" d="M724.435,712.809a3.4,3.4,0,1,0,3.4-3.4A3.4,3.4,0,0,0,724.435,712.809Z" transform="translate(-724.435 -409.69)" fill="#c33149"/>
    </g>
    <g id="Group_54485" data-name="Group 54485" transform="translate(0 0)">
      <g id="Group_54484" data-name="Group 54484" clip-path="url(#clip-path-2)">
        <g id="Group_54483" data-name="Group 54483" transform="translate(77.311 88.012)">
          <g id="Group_54482" data-name="Group 54482">
            <g id="Group_54481" data-name="Group 54481">
              <path id="Path_60256" data-name="Path 60256" d="M-20.018,521.111a1.966,1.966,0,0,0,1.978,1.953,1.968,1.968,0,0,0,1.981-1.953,1.965,1.965,0,0,0-1.981-1.949A1.962,1.962,0,0,0-20.018,521.111Z" transform="translate(329.447 -360.696)" fill="#c33149"/>
              <g id="Group_54479" data-name="Group 54479" transform="translate(297.238 244.806)">
                <path id="Path_60257" data-name="Path 60257" d="M4.407,705.356.1,702.865l-4.309-2.488v9.964L.1,707.852Z" transform="translate(4.212 -700.377)" fill="#c33149"/>
              </g>
              <path id="Path_60258" data-name="Path 60258" d="M91.312,807.454a1.978,1.978,0,1,0,1.979-1.949A1.964,1.964,0,0,0,91.312,807.454Z" transform="translate(165.076 -510.611)" fill="#c33149"/>
              <g id="Group_54480" data-name="Group 54480">
                <path id="Path_60259" data-name="Path 60259" d="M365.871,727.272a8.4,8.4,0,1,1-8.516,8.4A8.47,8.47,0,0,1,365.871,727.272Zm0,16.321a7.92,7.92,0,1,0-8.028-7.92A7.984,7.984,0,0,0,365.872,743.593Z" transform="translate(-240.802 -469.652)" fill="#c33149"/>
                <path id="Path_60260" data-name="Path 60260" d="M44.327,582.4a6.658,6.658,0,1,1-6.658-6.569A6.62,6.62,0,0,1,44.327,582.4Zm-12.088,0a5.431,5.431,0,1,0,5.431-5.358A5.4,5.4,0,0,0,32.24,582.4Z" transform="translate(244.746 -390.367)" fill="#c33149"/>
                <path id="Path_60261" data-name="Path 60261" d="M418.685,723.708a2.94,2.94,0,1,1,2.981-2.942A2.958,2.958,0,0,1,418.685,723.708Z" transform="translate(-315.879 -464.707)" fill="#c33149"/>
                <path id="Path_60262" data-name="Path 60262" d="M-13.382,596.888A2.963,2.963,0,0,1-10.4,599.83a2.921,2.921,0,0,1-.07.63H34.291l9.1-10.7H26.452a1.944,1.944,0,1,1,0-1.209H57.576a12.55,12.55,0,0,1,25.052,0H96.045L111.911,572.9H139.8a2.99,2.99,0,0,1,5.834,0h12.863l-11.233-11.083H112.692a1.95,1.95,0,1,1,0-1.211h35.077l12.46,12.293H170.69a31.783,31.783,0,0,1,5.569-17.384l-.017.017L164.349,543.8l.858-.846-15.481,8.817-15.669-8.924V524.994l15.669-8.925,15.671,8.925v17.851l-.176.1,11.743,11.583a32.806,32.806,0,0,1,25.823-13.282v-5.878l-10.148-5.781V525.1l-8.974-8.854V531.2l3.709,3.657-.867.858-4.07-4.014V515.04l-8.678-8.561V484.858l-7.328-7.229a1.942,1.942,0,1,1,1.088-1.734,1.915,1.915,0,0,1-.221.879l7.688,7.585v21.618l17.653,17.415v-5.463l-14.275-14.084V468.809h1.227v34.536l13.763,13.578,9.433-5.375V499.052l14.189-14V471.688a2.933,2.933,0,0,1,0-5.755V451.211a1.98,1.98,0,1,1,1.227,0v14.721a2.932,2.932,0,0,1,0,5.755v13.871l-14.189,14v11.992l10.148,5.783v12.258l-6.719,3.828v12.369A28.474,28.474,0,0,1,222.708,553l5.245-5.174h22.058a1.95,1.95,0,1,1,.111,1.211H228.461l-4.87,4.806a27.681,27.681,0,0,1,0,39.325l2.189,2.16a30.75,30.75,0,0,0,9.106-21.822h1.227a31.946,31.946,0,0,1-9.466,22.678l27.163,26.8a1.943,1.943,0,1,1-1.088,1.737,1.913,1.913,0,0,1,.221-.88l-27.179-26.812a32.83,32.83,0,0,1-22.366,8.753v-1.211a31.589,31.589,0,0,0,21.5-8.4l-2.189-2.16a28.594,28.594,0,0,1-38.929-.293l-10.063,9.928H156.43l-21.4,21.115a1.912,1.912,0,0,1,.117.637,1.978,1.978,0,1,1-1.978-1.953,1.994,1.994,0,0,1,1.114.342L154.7,603.641h-4.984l-21.371,21.082a1.917,1.917,0,0,1,.128.672,1.972,1.972,0,1,1-.89-1.63l20.4-20.123H123a1.952,1.952,0,1,1,0-1.209h26.2l.091-.089.09.089h6.54l.09-.088.09.088h17.107l9.7-9.572a27.707,27.707,0,0,1-7.9-19.356,28.215,28.215,0,0,1,27.773-27.99v-3.057A31.3,31.3,0,0,0,171.912,573.5v.605H145.631a2.99,2.99,0,0,1-5.835,0H112.418L96.553,589.759H82.627a12.55,12.55,0,0,1-25.052,0H44.99L34.863,601.67H-11.059a2.994,2.994,0,0,1-2.323,1.1,2.963,2.963,0,0,1-2.983-2.941A2.961,2.961,0,0,1-13.382,596.888Zm177.55-71.195-14.442-8.227-14.443,8.227v16.453l14.442,8.226,14.444-8.226Zm48.765-7.668L203.4,512.6l-9.536,5.429v10.867l9.536,5.429,9.534-5.429Zm-6.718,16.088-2.2,1.255v10.144c.741.015,1.477.052,2.2.122Zm-2.2,39.64L187.5,590.04a22.949,22.949,0,1,0,16.509-39.33Zm-1.225-.5V550.71a22.977,22.977,0,0,0-22.5,22.793,22.562,22.562,0,0,0,6.355,15.682ZM203.4,600.3a26.79,26.79,0,1,0,.612-53.577v3.5a23.292,23.292,0,1,1-16.855,40.156l-2.51,2.477A27.257,27.257,0,0,0,203.4,600.3Zm-27.163-26.8a26.51,26.51,0,0,0,7.541,18.5l2.511-2.477a23.039,23.039,0,0,1-6.5-16.024,23.466,23.466,0,0,1,23-23.277v-3.5A27,27,0,0,0,176.236,573.5ZM70.1,600.317a11.164,11.164,0,1,0-11.315-11.164A11.253,11.253,0,0,0,70.1,600.317Z" transform="translate(54.968 -323.132)" fill="#c33149"/>
                <path id="Path_60263" data-name="Path 60263" d="M110.039,528.5a2.942,2.942,0,1,1-2.981,2.941A2.962,2.962,0,0,1,110.039,528.5Z" transform="translate(139.821 -365.584)" fill="#c33149"/>
                <path id="Path_60264" data-name="Path 60264" d="M110.039,547.435a2.941,2.941,0,1,1-2.981,2.94A2.962,2.962,0,0,1,110.039,547.435Z" transform="translate(139.821 -375.498)" fill="#c33149"/>
                <path id="Path_60265" data-name="Path 60265" d="M251.636,618.98a2.941,2.941,0,1,1,2.982-2.94A2.96,2.96,0,0,1,251.636,618.98Z" transform="translate(-69.241 -409.876)" fill="#c33149"/>
                <path id="Path_60266" data-name="Path 60266" d="M251.636,632.035a2.94,2.94,0,1,1-2.979,2.941A2.96,2.96,0,0,1,251.636,632.035Z" transform="translate(-69.241 -419.791)" fill="#c33149"/>
                <path id="Path_60267" data-name="Path 60267" d="M44.791,587.475a1.979,1.979,0,1,1-1.978-1.952A1.963,1.963,0,0,1,44.791,587.475Z" transform="translate(239.604 -395.439)" fill="#c33149"/>
                <path id="Path_60268" data-name="Path 60268" d="M88.152,795.812a6.569,6.569,0,1,1-6.658,6.568A6.619,6.619,0,0,1,88.152,795.812Zm0,11.926a5.357,5.357,0,1,0-5.431-5.358A5.4,5.4,0,0,0,88.152,807.737Z" transform="translate(170.215 -505.536)" fill="#c33149"/>
                <path id="Path_60269" data-name="Path 60269" d="M-29.834,516.035a6.619,6.619,0,0,1,6.657-6.567,6.62,6.62,0,0,1,6.657,6.567,6.619,6.619,0,0,1-6.657,6.567A6.62,6.62,0,0,1-29.834,516.035Zm6.658,5.358a5.4,5.4,0,0,0,5.429-5.358,5.4,5.4,0,0,0-5.43-5.355,5.4,5.4,0,0,0-5.429,5.355A5.4,5.4,0,0,0-23.176,521.393Z" transform="translate(334.584 -355.621)" fill="#c33149"/>
                <path id="Path_60270" data-name="Path 60270" d="M300.578,784.714a6.567,6.567,0,1,1-6.655,6.567A6.618,6.618,0,0,1,300.578,784.714Zm0,11.925a5.358,5.358,0,1,0-5.429-5.358A5.4,5.4,0,0,0,300.578,796.639Z" transform="translate(-143.426 -499.725)" fill="#c33149"/>
                <path id="Path_60271" data-name="Path 60271" d="M305.722,794.4a1.952,1.952,0,1,1-1.98,1.952A1.965,1.965,0,0,1,305.722,794.4Z" transform="translate(-148.566 -504.796)" fill="#c33149"/>
                <path id="Path_60272" data-name="Path 60272" d="M42.811,623.523a1.952,1.952,0,1,1,1.978-1.952A1.961,1.961,0,0,1,42.811,623.523Z" transform="translate(239.606 -413.29)" fill="#c33149"/>
                <path id="Path_60273" data-name="Path 60273" d="M165.754,740.067a1.978,1.978,0,0,1,.89.218l17.8-17.556h56.252v1.21h-23.16L207.335,734H188.987v-1.211h17.838l8.973-8.853h-30.85l-17.437,17.2a1.913,1.913,0,0,1,.221.88,1.98,1.98,0,1,1-1.979-1.954Z" transform="translate(-14.875 -467.273)" fill="#c33149"/>
                <path id="Path_60274" data-name="Path 60274" d="M-9.411,447.218a1.983,1.983,0,0,1-.826-.183L-34,470.475l-.866-.859,23.729-23.407a1.908,1.908,0,0,1-.256-.943,1.966,1.966,0,0,1,1.979-1.952,1.964,1.964,0,0,1,1.978,1.952A1.964,1.964,0,0,1-9.411,447.218Z" transform="translate(327.894 -320.986)" fill="#c33149"/>
                <path id="Path_60275" data-name="Path 60275" d="M50.023,288.606V310.15l-15.7,15.483v32.724l-15.82,15.607-.868-.855L33.1,357.857V277.579L22.953,271.8v-12.26l10.148-5.78v-54.5h1.226v54.5l3.23,1.839V224.524a1.979,1.979,0,1,1,1.226,0V256.3l5.695,3.243,0,12.26L34.327,277.58v46.343L48.8,309.649V288.561a1.981,1.981,0,1,1,1.226.045Zm-6.773-28.369-5.429-3.091h-.264V257l-3.843-2.188-9.535,5.431V271.1l9.535,5.432L43.25,271.1Z" transform="translate(243.984 -193.209)" fill="#c33149"/>
                <path id="Path_60276" data-name="Path 60276" d="M66.288,408.768l1.681-3.022,1.813,2.949,1.812,2.947-3.493.075-3.494.074Z" transform="translate(201.474 -301.317)" fill="#c33149"/>
                <path id="Path_60277" data-name="Path 60277" d="M435.513,720.341l2.989-1.787,2.985-1.788.077,3.446.076,3.445L438.576,722Z" transform="translate(-345.291 -464.152)" fill="#c33149"/>
                <path id="Path_60278" data-name="Path 60278" d="M229.559,581.864l2.989-1.787,2.988-1.79.075,3.448.075,3.446-3.064-1.658Z" transform="translate(-41.21 -391.651)" fill="#c33149"/>
                <path id="Path_60279" data-name="Path 60279" d="M-12.688,593.375l-.074-3.447-.077-3.446,3.064,1.66,3.064,1.657L-9.7,591.586Z" transform="translate(316.678 -395.941)" fill="#c33149"/>
                <path id="Path_60280" data-name="Path 60280" d="M147.52,635.081l1.814,2.948,1.813,2.95-3.495.073-3.494.076,1.682-3.022Z" transform="translate(84.019 -421.385)" fill="#c33149"/>
                <path id="Path_60281" data-name="Path 60281" d="M129.175,357.67l1.682-3.023,1.681-3.022,1.813,2.946,1.812,2.949-3.494.073Z" transform="translate(106.141 -272.983)" fill="#c33149"/>
                <path id="Path_60282" data-name="Path 60282" d="M47.553,192.611l1.682-3.023,1.68-3.022,1.813,2.949,1.813,2.948-3.494.074Z" transform="translate(226.651 -186.566)" fill="#c33149"/>
                <path id="Path_60283" data-name="Path 60283" d="M69.781,426l1.813,2.947-3.493.074-3.494.075,1.682-3.021,1.681-3.024Z" transform="translate(201.474 -310.377)" fill="#c33149"/>
                <path id="Path_60284" data-name="Path 60284" d="M39.425,333.623v-8.392l7.368-4.2,7.366,4.2v8.392l-7.367,4.2Zm14.244-8.112-6.877-3.918-6.878,3.918,0,7.833,6.876,3.916,6.877-3.917Z" transform="translate(230.906 -256.966)" fill="#c33149"/>
                <path id="Path_60285" data-name="Path 60285" d="M182.588,620.711l-.122-.069V606.722l12.219-6.961,12.1,6.891.124.07v13.92L194.685,627.6ZM206.415,607l-11.729-6.679L182.956,607v13.362l11.729,6.681,11.73-6.682Z" transform="translate(10.008 -402.894)" fill="#c33149"/>
                <path id="Path_60286" data-name="Path 60286" d="M129.674,779.734v5.075l-4.453,2.537-4.454-2.537v-5.075l4.453-2.536Z" transform="translate(116.635 -495.79)" fill="#c33149"/>
                <path id="Path_60287" data-name="Path 60287" d="M191.3,551.7V548.5l2.8-1.6,2.8,1.6V551.7l-2.8,1.6Z" transform="translate(15.797 -375.222)" fill="#c33149"/>
                <path id="Path_60288" data-name="Path 60288" d="M384.545,685.319V680.95l3.835-2.186,3.835,2.185v4.37L388.38,687.5Z" transform="translate(-271.583 -444.256)" fill="#c33149"/>
                <path id="Path_60289" data-name="Path 60289" d="M78.975,592.711l7.857-4.474,7.855,4.474v8.95l-7.855,4.474-7.858-4.474Zm.491,8.67,7.366,4.2,7.365-4.2v-8.388l-7.365-4.2-7.366,4.2Z" transform="translate(171.535 -396.86)" fill="#c33149"/>
                <path id="Path_60290" data-name="Path 60290" d="M133.722,500.061V444.717a1.979,1.979,0,1,1,1.225,0V500.06Z" transform="translate(104.475 -319.732)" fill="#c33149"/>
                <path id="Path_60291" data-name="Path 60291" d="M496.77,734l2.689-1.533,2.687-1.529v6.124l-2.687-1.529Z" transform="translate(-434.983 -471.573)" fill="#c33149"/>
                <path id="Path_60292" data-name="Path 60292" d="M-24.167,518.948,23,472.418a1.913,1.913,0,0,1-.307-1.034,1.987,1.987,0,1,1,1.254,1.811L-11.7,508.357H.646l9.049-8.927.867.857-9.408,9.279H-12.923L-23.3,519.8Z" transform="translate(288.714 -334.66)" fill="#c33149"/>
                <path id="Path_60293" data-name="Path 60293" d="M190.373,746.5l.076,3.448-3.063-1.662-3.064-1.658,2.988-1.79,2.988-1.786Z" transform="translate(25.582 -477.914)" fill="#c33149"/>
                <path id="Path_60294" data-name="Path 60294" d="M172.829,746.5l.076,3.447-3.066-1.66-3.063-1.659,2.988-1.788,2.988-1.788Z" transform="translate(51.484 -477.914)" fill="#c33149"/>
                <path id="Path_60295" data-name="Path 60295" d="M47.211,809.6l-1.669,3.045-1.669,3.044-1.8-2.969-1.8-2.971,3.469-.073Z" transform="translate(237.45 -512.753)" fill="#c33149"/>
                <path id="Path_60296" data-name="Path 60296" d="M47.212,792.166l-1.67,3.045-1.669,3.045-1.8-2.969-1.8-2.969,3.47-.077Z" transform="translate(237.45 -503.627)" fill="#c33149"/>
                <path id="Path_60297" data-name="Path 60297" d="M488.819,725.693a2.99,2.99,0,0,1,5.836,0h34.2l-3.645-3.6H507.379a1.945,1.945,0,1,1,0-1.21h18.343l4.873,4.806h12.513l16.628-9.469v20.152L543.1,726.9H494.655a2.99,2.99,0,0,1-5.836,0h-.063v-1.209Zm69.69,8.583V718.316L544.5,726.3Z" transform="translate(-488.756 -463.867)" fill="#c33149"/>
                <path id="Path_60298" data-name="Path 60298" d="M469.094,753.093l.953.764-10.372,12.6-37.775,0v-1.209h37.189Z" transform="translate(-367.212 -483.17)" fill="#c33149"/>
                <path id="Path_60299" data-name="Path 60299" d="M-33.376,617.1A6.63,6.63,0,0,1-40,623.066a6.621,6.621,0,0,1-6.658-6.566A6.62,6.62,0,0,1-40,609.932a6.631,6.631,0,0,1,6.626,5.963h33.2A1.953,1.953,0,1,1-.2,617.1ZM-40,611.143a5.4,5.4,0,0,0-5.431,5.357A5.4,5.4,0,0,0-40,621.858a5.4,5.4,0,0,0,5.43-5.359A5.4,5.4,0,0,0-40,611.143Z" transform="translate(322.418 -408.219)" fill="#c33149"/>
                <path id="Path_60300" data-name="Path 60300" d="M103.968,489.284v-5.073l4.453-2.538,4.454,2.538v5.073l-4.454,2.536Z" transform="translate(141.439 -341.069)" fill="#c33149"/>
                <path id="Path_60301" data-name="Path 60301" d="M405.753,766.2l4.453,2.537v5.074l-4.453,2.536-4.454-2.538v-5.073Z" transform="translate(-297.556 -490.031)" fill="#c33149"/>
                <path id="Path_60302" data-name="Path 60302" d="M340.21,670.322V693.6l-20.437-11.639Zm-1.227,11.639v-9.542l-16.754,9.543,16.754,9.543Z" transform="translate(-188.716 -439.836)" fill="#c33149"/>
                <path id="Path_60303" data-name="Path 60303" d="M125.284,396.264,135.5,413.716H115.07Zm0,2.422-8.09,13.821h16.179Z" transform="translate(113.526 -296.353)" fill="#c33149"/>
              </g>
              <path id="Path_60304" data-name="Path 60304" d="M365.18,739.714a4.79,4.79,0,1,0,4.79-4.725A4.756,4.756,0,0,0,365.18,739.714Z" transform="translate(-244.9 -473.692)" fill="#c33149"/>
              <path id="Path_60305" data-name="Path 60305" d="M77.923,703a8.358,8.358,0,1,0,8.358-8.245A8.3,8.3,0,0,0,77.923,703Z" transform="translate(172.086 -452.625)" fill="#c33149"/>
              <path id="Path_60306" data-name="Path 60306" d="M47.554,336.265l3.495,1.989,3.494-1.989v-3.981l-3.494-1.991-3.495,1.991Z" transform="translate(226.65 -261.814)" fill="#c33149"/>
              <path id="Path_60307" data-name="Path 60307" d="M193.427,624.2l7,3.986,7-3.986v-7.974l-7-3.987-7,3.987Z" transform="translate(4.268 -409.428)" fill="#c33149"/>
              <path id="Path_60308" data-name="Path 60308" d="M88.266,604.681l3.43,1.952,3.428-1.953v-3.9L91.7,598.824l-3.43,1.952Z" transform="translate(166.671 -402.403)" fill="#c33149"/>
              <path id="Path_60309" data-name="Path 60309" d="M328.95,690.8l3.154,1.8,3.154,1.8v-7.186l-3.154,1.8Z" transform="translate(-188.136 -448.678)" fill="#c33149"/>
              <path id="Path_60310" data-name="Path 60310" d="M133.1,413.857l-1.553,2.651-1.551,2.654h6.21l-1.553-2.653Z" transform="translate(105.714 -305.564)" fill="#c33149"/>
            </g>
          </g>
        </g>
      </g>
    </g>
  </g>
</svg>
