<svg xmlns="http://www.w3.org/2000/svg" width="71.684" height="52.954" viewBox="0 0 71.684 52.954">
  <path id="Path_115225" data-name="Path 115225" d="M38.851,125.5V89.076a6.936,6.936,0,0,1,1.235-3.849A9.565,9.565,0,0,1,43.313,82.2a7.925,7.925,0,0,1,4.026-1.152h3.846a7.825,7.825,0,0,1,4.109,1.206,9.467,9.467,0,0,1,3.167,3.135,7.454,7.454,0,0,1,1.2,3.963v36.7a7.407,7.407,0,0,1-1.146,3.986,8.468,8.468,0,0,1-3.121,2.891A8.7,8.7,0,0,1,51.185,134H47.05a7.256,7.256,0,0,1-4.063-1.244,9.3,9.3,0,0,1-3.009-3.215,8.115,8.115,0,0,1-1.126-4.043Zm6.963-39.672v43.463h6.809V85.826Zm39.162,27.636v12.589a6.955,6.955,0,0,1-1.175,3.894,8.855,8.855,0,0,1-7.313,3.914H64.3V123.99h6.966v5.31h6.817V109.946H73.236a8.973,8.973,0,0,1-4.605-1.2A8.4,8.4,0,0,1,65.45,105.5a9.089,9.089,0,0,1-1.149-4.482V89.213a6.9,6.9,0,0,1,1.344-4.181A8.677,8.677,0,0,1,69.187,82.2a11.039,11.039,0,0,1,4.631-1H84.976V91.239H78.084V85.975H71.267v19.409h5.367a7.847,7.847,0,0,1,4.086,1.155,8.962,8.962,0,0,1,3.106,3.029,7.39,7.39,0,0,1,1.149,3.894Zm25.559-15.735h-6.889v-11.9H96.811v43.463h6.835V109.957H99.508v-4.711h11.027v20.8a7.1,7.1,0,0,1-1.195,3.94,8.8,8.8,0,0,1-3.169,2.926A8.459,8.459,0,0,1,102.035,134H97.975a7.46,7.46,0,0,1-5.769-2.628,8.584,8.584,0,0,1-2.358-5.875V89.213a7.188,7.188,0,0,1,1.175-3.871,9.054,9.054,0,0,1,3.118-3.006A7.872,7.872,0,0,1,98.192,81.2h3.989a7.562,7.562,0,0,1,4.049,1.209,9.637,9.637,0,0,1,3.132,3.109,7.387,7.387,0,0,1,1.172,3.906Z" transform="translate(-38.851 -81.046)" fill="#fff" fill-rule="evenodd"/>
</svg>
