<svg xmlns="http://www.w3.org/2000/svg" width="172.253" height="127.248" viewBox="0 0 172.253 127.248">
  <path id="Path_115542" data-name="Path 115542" d="M38.851,187.863V100.341a16.668,16.668,0,0,1,2.968-9.248,22.985,22.985,0,0,1,7.754-7.279,19.042,19.042,0,0,1,9.675-2.768h9.241a18.8,18.8,0,0,1,9.875,2.9,22.748,22.748,0,0,1,7.609,7.533A17.913,17.913,0,0,1,88.85,101v88.19A17.8,17.8,0,0,1,86.1,198.77a20.349,20.349,0,0,1-7.5,6.948,20.917,20.917,0,0,1-10.109,2.575H58.552a17.437,17.437,0,0,1-9.764-2.988,22.348,22.348,0,0,1-7.23-7.726,19.5,19.5,0,0,1-2.706-9.716ZM55.584,92.532V196.973H71.945V92.532Zm94.1,66.409v30.251a16.712,16.712,0,0,1-2.823,9.358,21.278,21.278,0,0,1-17.573,9.406H100.006V184.241h16.74V197h16.382V150.492H121.476a21.561,21.561,0,0,1-11.066-2.878,20.194,20.194,0,0,1-7.643-7.8,21.84,21.84,0,0,1-2.761-10.77V100.671a16.568,16.568,0,0,1,3.23-10.047,20.849,20.849,0,0,1,8.511-6.81,26.525,26.525,0,0,1,11.128-2.41h26.814V105.54H133.127V92.89H116.746v46.639h12.9a18.855,18.855,0,0,1,9.819,2.775,21.536,21.536,0,0,1,7.464,7.279,17.758,17.758,0,0,1,2.761,9.358ZM211.1,121.13H194.551v-28.6H178.127V196.973h16.423V150.52h-9.943V139.2h26.5v49.993a17.071,17.071,0,0,1-2.871,9.468,21.133,21.133,0,0,1-7.616,7.031,20.326,20.326,0,0,1-9.936,2.6h-9.757a17.927,17.927,0,0,1-13.862-6.315,20.626,20.626,0,0,1-5.667-14.116V100.671a17.272,17.272,0,0,1,2.823-9.3,21.757,21.757,0,0,1,7.492-7.223,18.915,18.915,0,0,1,9.737-2.741h9.585a18.172,18.172,0,0,1,9.73,2.906,23.159,23.159,0,0,1,7.526,7.471,17.75,17.75,0,0,1,2.816,9.386Z" transform="translate(-38.851 -81.046)" fill="#fff" fill-rule="evenodd"/>
</svg>
